<?xml version="1.0" encoding="utf-8"?>
<svg
	version="1.1"
	xmlns="http://www.w3.org/2000/svg"
	xmlns:xlink="http://www.w3.org/1999/xlink"
	x="0%" y="0%"
	width="100%" height="100%"
	viewBox="0 0 5000.0 5000.0"
	enable-background="new 0 0 5000.0 5000.0"
	xml:space="preserve">
	<path
		fill="#FFFFFF"
		stroke="#FFFFFF"
		fill-opacity="0.000"
		stroke-opacity="1.000"
		fill-rule="nonzero"
		stroke-width="210.0"
		stroke-linejoin="miter"
		stroke-linecap="square"
		d="M208.33,4791.67Q5000.00,5000.00,4791.67,833.33Q3541.67,1458.33,4166.67,208.33Q0.00,0.00,208.33,4791.67z"/>
	<path
		fill="#FFFFFF"
		stroke="#FFFFFF"
		fill-opacity="0.973"
		stroke-opacity="1.000"
		fill-rule="nonzero"
		stroke-width="125.0"
		stroke-linejoin="miter"
		stroke-linecap="square"
		d="M1250.00,3639.71C1310.91,3639.71,1360.29,3689.09,1360.29,3750.00C1360.29,3810.91,1310.91,3860.29,1250.00,3860.29C1189.09,3860.29,1139.71,3810.91,1139.71,3750.00C1139.71,3689.09,1189.09,3639.71,1250.00,3639.71z"/>
	<path
		fill="#FFFFFF"
		stroke="#FFFFFF"
		fill-opacity="0.973"
		stroke-opacity="1.000"
		fill-rule="nonzero"
		stroke-width="125.0"
		stroke-linejoin="miter"
		stroke-linecap="square"
		d="M3088.24,1801.47C3149.15,1801.47,3198.53,1850.85,3198.53,1911.76C3198.53,1972.68,3149.15,2022.06,3088.24,2022.06C3027.32,2022.06,2977.94,1972.68,2977.94,1911.76C2977.94,1850.85,3027.32,1801.47,3088.24,1801.47z"/>
	<path
		fill="#FFFFFF"
		stroke="#FFFFFF"
		fill-opacity="0.000"
		stroke-opacity="1.000"
		fill-rule="nonzero"
		stroke-width="125.0"
		stroke-linejoin="miter"
		stroke-linecap="square"
		d="M3088.24,1911.76Q2205.88,1911.76,2205.88,2794.12Q2205.88,3750.00,1250.00,3750.00"/>
</svg>